<?xml version="1.0" encoding="utf-8"?>
<!-- Generator: Adobe Illustrator 14.0.0, SVG Export Plug-In . SVG Version: 6.00 Build 43363)  -->
<!DOCTYPE svg PUBLIC "-//W3C//DTD SVG 1.1//EN" "http://www.w3.org/Graphics/SVG/1.1/DTD/svg11.dtd">
<svg version="1.1" id="Layer_1" xmlns="http://www.w3.org/2000/svg" xmlns:xlink="http://www.w3.org/1999/xlink" x="0px" y="0px"
	 width="340.16px" height="141.73px" viewBox="0 0 340.16 141.73" enable-background="new 0 0 340.16 141.73" xml:space="preserve">
<g>
	<path d="M82.335,49.631c2.235,3.216-0.708-11.978-1.837-15.944c-1.318-4.633-3.445-8.879-6.132-12.697
		C68.373,12.473,59.599,6.078,51.05,2.213l-1.718-0.777c-0.351-0.159-0.722-0.141-1.054,0.051c-0.332,0.191-0.535,0.502-0.574,0.884
		l-0.193,1.874c-0.611,5.915,0.273,12.439,2.793,18.123c0.688,1.551,1.49,3.043,2.426,4.438c3.56,5.313,8.891,9.292,16.152,10.383
		c0.436,0.065,0.783-0.147,1.049-0.505c-5.02-1.131-8.77-4.084-11.345-7.926c-1.621-2.42-5.884-10.297-6.114-18.174
		c-0.013-0.443,0.164-0.838,0.537-1.073c0.375-0.235,0.818-0.242,1.2-0.019c6.024,3.522,11.473,8.625,16.033,14.401
		c3.212,4.068,7.769,17.809,8.173,21.295c0.048,0.411-0.108,0.786-0.432,1.042c-0.325,0.256-0.727,0.32-1.114,0.179
		c-6.349-2.319-12.178-2.727-17.336-2.018C58.154,44.58,82.335,49.631,82.335,49.631z"/>
	
		<linearGradient id="SVGID_1_" gradientUnits="userSpaceOnUse" x1="74.1963" y1="27.52" x2="114.269" y2="27.52" gradientTransform="matrix(0.9947 0.1027 -0.1051 1.0178 -28.319 -12.8402)">
		<stop  offset="0" style="stop-color:#89A3B1"/>
		<stop  offset="0.5393" style="stop-color:#507282"/>
		<stop  offset="1" style="stop-color:#1E4554"/>
	</linearGradient>
	<path fill="url(#SVGID_1_)" d="M79.362,49.332c2.229,3.285-0.68-12.251-1.8-16.306c-1.308-4.736-3.425-9.075-6.103-12.974
		c-5.975-8.699-14.736-15.22-23.278-19.153l-1.716-0.791c-0.351-0.162-0.722-0.142-1.054,0.054s-0.537,0.516-0.577,0.906
		l-0.198,1.917c-0.625,6.052,0.244,12.724,2.75,18.532c0.685,1.585,1.483,3.11,2.416,4.535c3.548,5.427,8.871,9.485,16.132,10.583
		c0.436,0.065,0.784-0.152,1.05-0.519c-5.018-1.146-8.762-4.157-11.328-8.081c-1.616-2.472-5.861-10.52-6.073-18.577
		c-0.011-0.453,0.167-0.857,0.54-1.099c0.376-0.242,0.819-0.25,1.201-0.022c6.018,3.588,11.454,8.796,16.003,14.693
		c3.202,4.154,7.728,18.2,8.124,21.765c0.047,0.42-0.11,0.804-0.435,1.066c-0.325,0.262-0.728,0.329-1.114,0.186
		c-6.345-2.357-12.175-2.761-17.336-2.023C55.188,44.221,79.362,49.332,79.362,49.332z"/>
	<text transform="matrix(1.2586 0 0 1 14.4609 121.1738)" font-family="'ArialRoundedMTBold'" font-size="62.2029">AVALON</text>
	<path d="M94.346,50.883c-1.963,0.78-3.95,1.64-5.963,2.513c-2.106,0.914-4.236,1.837-6.396,2.709
		c2.256-0.889,4.479-1.853,6.674-2.805C90.573,52.471,92.467,51.651,94.346,50.883z"/>
	<path d="M27.13,46.999c2.078-1.2,4.293-2.318,6.658-3.3C31.406,44.663,29.183,45.78,27.13,46.999z"/>
	<path d="M33.857,43.672c0.558-0.23,1.132-0.444,1.706-0.659C34.982,43.221,34.419,43.446,33.857,43.672z"/>
	<path d="M134.372,73.249c-0.062-0.11-0.119-0.223-0.182-0.333c0.042,0.11,0.078,0.223,0.12,0.333H134.372z"/>
	<path d="M75.686,51.863l3.147,1.242c0.603,0.237,1.233,0.16,1.759-0.218c0.526-0.378,0.802-0.951,0.768-1.598l-0.174-3.382
		c-0.003-0.054-0.009-0.107-0.012-0.162c-2.725,1.142-5.494,2.221-8.312,3.079C73.794,51.147,74.732,51.487,75.686,51.863z"/>
	<path d="M33.789,43.699c0.022-0.009,0.046-0.017,0.068-0.026C33.834,43.682,33.811,43.69,33.789,43.699z"/>
	<linearGradient id="SVGID_2_" gradientUnits="userSpaceOnUse" x1="3.3218" y1="89.7832" x2="81.1738" y2="89.7832">
		<stop  offset="0" style="stop-color:#89A3B1"/>
		<stop  offset="0.5393" style="stop-color:#507282"/>
		<stop  offset="1" style="stop-color:#1E4554"/>
	</linearGradient>
	<path fill="url(#SVGID_2_)" d="M40.189,41.623c-1.585,0.449-3.143,0.859-4.627,1.391c-0.573,0.215-1.148,0.428-1.706,0.659
		c-0.022,0.009-0.046,0.018-0.068,0.026c-2.365,0.982-4.58,2.1-6.658,3.3c-6.168,3.664-10.834,8.198-13.877,11.909
		c-3.244,3.955-5.632,8.853-7.257,14.341c-0.173,0.584-0.345,1.169-0.5,1.767C1.96,88.582,2.893,105.24,7.166,120.564
		c1.92,6.885,4.512,13.463,7.658,19.341c-1.624-3.853-3.036-7.898-4.196-12.061c-4.273-15.324-5.206-31.983-1.671-45.55
		c0.839-3.224,1.937-6.257,3.294-9.046c1.257-2.583,2.737-4.958,4.463-7.062c4.915-5.993,14.052-14.139,26.937-17.285
		c8.188-2,17.954-1.966,29.211,1.922c2.818-0.858,5.588-1.938,8.312-3.079C80.628,37.62,50.002,38.846,40.189,41.623z"/>
	<path d="M44.351,58.747c19.132,10.29,35.417,3.891,50.585-2.072c13.15-5.168,25.31-9.947,36.681,0.371
		c4.104,3.722,7.42,7.703,10.047,11.87c-2.907-6.838-7.43-13.311-13.867-19.15c-9.448-8.575-19.443-6.72-30.1-2.883
		c-2.072,0.769-4.163,1.588-6.272,2.418c-2.423,0.952-4.876,1.916-7.365,2.805c-11.904,4.359-24.62,7.426-38.921,1.538
		C43.588,55.396,42.683,57.851,44.351,58.747z"/>
	<linearGradient id="SVGID_3_" gradientUnits="userSpaceOnUse" x1="42.73" y1="55.2607" x2="142.5576" y2="55.2607">
		<stop  offset="0" style="stop-color:#89A3B1"/>
		<stop  offset="0.5393" style="stop-color:#507282"/>
		<stop  offset="1" style="stop-color:#1E4554"/>
	</linearGradient>
	<path fill="url(#SVGID_3_)" d="M128.329,49.093c-14.178-14.195-28.108-9.422-42.13-2.072c-1.612,0.845-6.422,2.833-4.837,2.214
		c0,0-4.024,1.648-7.501,2.59c-8.247,2.512-16.914,3.125-26.08-2.198c-2.234-1.298-6.932,5.245-4.243,6.841
		c1.409,0.836,2.799,1.551,4.175,2.176c12.962,5.888,24.484,2.821,35.273-1.538c2.16-0.873,4.29-1.796,6.396-2.709
		c2.013-0.873,4-1.733,5.963-2.513c12.389-5.067,24.134-7.836,36.444,4.489c4.442,4.448,7.99,9.216,10.768,14.204
		C139.537,62.919,134.891,55.663,128.329,49.093z"/>
</g>
</svg>
